<svg id="adidas_brand" xmlns="http://www.w3.org/2000/svg" width="150.512" height="101.473" viewBox="0 0 150.512 101.473">
  <g id="g2402" transform="translate(0 0)">
    <g id="g3035">
      <path id="path2405" d="M417.381,506.031l-30.948-53.785,22.233-12.77,38.483,66.556H417.381" transform="translate(-318.871 -439.475)"/>
      <path id="path2407" d="M141.04,672.364l22.233-12.857L175.037,679.9H145.354l-4.314-7.536" transform="translate(-124.962 -613.344)"/>
      <path id="path2409" d="M349.007,823.841h6.328v-25.6h-6.328Z" transform="translate(-289.297 -722.973)"/>
      <path id="path2411" d="M683.419,823.471c-7.075,0-11.332-3.653-11.562-8.8h6.673c0,1.611,1.006,3.969,5.321,4.056,2.876,0,4.228-1.7,4.228-2.962-.172-2.013-2.7-2.186-5.407-2.618A23.149,23.149,0,0,1,676,811.362a6.857,6.857,0,0,1-3.567-6.155c0-4.573,3.969-8.2,10.585-8.2,6.414,0,10.469,3.365,10.9,8.37h-6.443c-.057-1.352-.316-3.48-4.113-3.48-2.56,0-4.257.518-4.4,2.3,0,2.617,5.321,2.445,9.463,3.538,3.969,1.007,6.5,3.48,6.5,6.932,0,6.357-5.148,8.8-11.5,8.8" transform="translate(-544.412 -721.999)"/>
      <path id="path2413" d="M749.931,759.878a2.834,2.834,0,1,1,0,5.666,2.833,2.833,0,0,1,0-5.666Zm0-.432a3.265,3.265,0,0,0,0,6.529,3.265,3.265,0,1,0,0-6.529Zm.776,3.394a.93.93,0,0,0,.547-.92c0-.69-.547-1.007-1.208-1.007h-1.237v3.6h.575v-1.467h.776c.432,0,.547.345.547,1.035,0,.2,0,.316.115.432h.547a2.409,2.409,0,0,1-.115-1.007C751.254,762.926,750.937,762.84,750.707,762.84Zm-1.323-1.381h.776a.537.537,0,0,1,.547.575c0,.345-.46.46-.776.46h-.547v-1.035" transform="translate(-603.56 -692.316)"/>
      <path id="path2415" d="M265.244,563.621l22.233-12.828,24.937,43.2H289.145v6.328h-6.328v-6.356l-17.574-30.344" transform="translate(-223.108 -527.438)"/>
      <path id="path2417" d="M217.722,791.622a13.362,13.362,0,0,1-13.345-13.288,13.209,13.209,0,0,1,13.345-13.173,13.006,13.006,0,0,1,7.536,2.272V756.705h6.328v34.313h-6.328v-1.7A13.7,13.7,0,0,1,217.722,791.622Zm-7.277-13.288a7.406,7.406,0,1,0,7.449-7.363,7.435,7.435,0,0,0-7.449,7.363" transform="translate(-175.01 -690.15)" fill-rule="evenodd"/>
      <path id="path2419" d="M412.249,756.705h6.241v34.313h-6.241v-1.7a13.554,13.554,0,0,1-7.622,2.3,13.344,13.344,0,0,1-13.259-13.288,13.413,13.413,0,0,1,20.881-10.9Zm-14.726,21.629a7.364,7.364,0,0,0,14.726,0,7.363,7.363,0,1,0-14.726,0" transform="translate(-322.771 -690.15)" fill-rule="evenodd"/>
      <path id="path2421" d="M544.05,823.471a13.363,13.363,0,0,1-13.26-13.288,13.208,13.208,0,0,1,13.26-13.173,12.818,12.818,0,0,1,7.536,2.272V797.24h6.328v25.627h-6.328v-1.7A13.273,13.273,0,0,1,544.05,823.471Zm-7.1-13.288a7.416,7.416,0,0,0,7.363,7.277,7.341,7.341,0,0,0,7.277-7.277,7.417,7.417,0,0,0-7.277-7.363,7.491,7.491,0,0,0-7.363,7.363" transform="translate(-432.941 -721.999)" fill-rule="evenodd"/>
      <path id="path2423" d="M70.5,810.183a7.407,7.407,0,0,0,14.812,0,7.406,7.406,0,0,0-14.812,0Zm7.191,13.288a13.368,13.368,0,0,1-13.288-13.288,13.435,13.435,0,0,1,20.91-10.9V797.24h6.241v25.627H85.316v-1.7a13.553,13.553,0,0,1-7.622,2.3" transform="translate(-64.406 -721.999)" fill-rule="evenodd"/>
    </g>
  </g>
</svg>
