<svg id="levis_brand" xmlns="http://www.w3.org/2000/svg" width="151.199" height="69.055" viewBox="0 0 151.199 69.055">
  <g id="Group_2183" data-name="Group 2183" transform="translate(0 0)">
    <path id="path3455" d="M2.7,2.689,17.189,71.2l1.1-.57c15.414-8.1,30.8-7.612,40.986-5.778a71.432,71.432,0,0,1,18.676,5.965l.4.228.414-.2c18.192-8.091,33.216-7.624,42.613-5.814,10.177,1.972,16.149,5.908,16.211,5.953l1.145.759.295-1.357L153.9,2.689Z" transform="translate(-2.697 -2.689)" fill="#c41230"/>
    <path id="path3457" d="M137.452,42.918v5.174h2.692l-1.333,3.872h1.215l2.943-3.557h0V42.918Zm-51.515,3.15C77.9,46.068,73.1,50.556,73.1,58.063s4.612,12.006,13.316,12.006c7.916,0,11.532-3.009,12.39-8.152H91.732c-.394,1.989-2.247,2.676-4.67,2.676-2.834,0-4.62-1.957-4.62-5.152h16.22a7.925,7.925,0,0,0,.106-1.378C98.768,51.556,94.507,46.068,85.937,46.068Zm69.328.07c-7.137,0-11.705,2.869-11.705,7.764,0,9.148,13.567,6.048,13.567,9.284,0,1.223-.988,1.861-2.913,1.861-2.18,0-3.73-.993-3.73-2.957h-7.116v.131c0,4.148,2.893,7.574,10.68,7.574,8.787,0,12.149-3.486,12.15-7.97,0-9.31-14.187-5.81-14.187-9.378,0-.733.914-1.566,3.269-1.566,2.313,0,3.672,1.085,3.672,2.17h6.516C165.469,49.291,161.615,46.139,155.265,46.139Zm-28.64.446v22.7h8.5v-22.7Zm-30.207.044,11.151,22.7h6.987l10.794-22.7h-7.02l-5.988,13.11h-.155L106.2,46.629Zm-45.061.2V69.3H72.694V63.558H59.852V46.826ZM86,50.927c2.418,0,3.236,1.987,3.236,4.478H82.753C82.753,53.176,83.6,50.927,86,50.927Z" transform="translate(-32.731 -27.518)" fill="#fff"/>
  </g>
</svg>
