<svg id="crocs_brand" xmlns="http://www.w3.org/2000/svg" width="173.012" height="31.534" viewBox="0 0 173.012 31.534">
  <g id="g6" transform="translate(0 0.112)">
    <path id="path10" d="M21.436-65.558c-.111.014-.506.062-.866.1A16.007,16.007,0,0,0,9.011-58.636,16.048,16.048,0,0,0,6.745-46.855c1.254,6.812,6.625,11.663,13.9,12.55a26.66,26.66,0,0,0,4.525.035,14.622,14.622,0,0,0,8.122-3.236,19.632,19.632,0,0,0,2.266-2.211,4.27,4.27,0,0,0-1.254-6.5,4.166,4.166,0,0,0-3.964-.042,4.925,4.925,0,0,0-1.421,1.1,8.652,8.652,0,0,1-3.957,2.474,5.891,5.891,0,0,1-1.933.187,5.916,5.916,0,0,1-3.188-.651A5.993,5.993,0,0,1,16.73-46.82a8.716,8.716,0,0,1-.478-3.118,8.32,8.32,0,0,1,.8-3.846,6.126,6.126,0,0,1,5.911-3.451,7.17,7.17,0,0,1,5.779,3.008,4.326,4.326,0,0,0,6.59.485,3.985,3.985,0,0,0,1.275-3.125c-.014-1.469-.43-2.266-2.183-4.116a13.917,13.917,0,0,0-7.152-4.158,15.725,15.725,0,0,0-3.929-.423C22.406-65.579,21.554-65.572,21.436-65.558Z" transform="translate(-6.461 65.59)" fill="#75b709"/>
    <path id="path12" d="M135.908-65.538c-7.089.735-12.619,5.281-14.241,11.7a16.7,16.7,0,0,0-.243,6.854,15.2,15.2,0,0,0,9.625,11.552,19.009,19.009,0,0,0,13.721-.076,15.14,15.14,0,0,0,9.39-11.566,16.972,16.972,0,0,0-.277-6.854,15.66,15.66,0,0,0-2.6-5.391,20.345,20.345,0,0,0-3.008-2.973,17.207,17.207,0,0,0-8.69-3.25A27.173,27.173,0,0,0,135.908-65.538Zm3.43,8.274a6.422,6.422,0,0,1,5.121,5.585,10.353,10.353,0,0,1-.52,5.481,6.333,6.333,0,0,1-3.368,3.43,6.3,6.3,0,0,1-2.758.464,5.865,5.865,0,0,1-1.8-.159,6.609,6.609,0,0,1-4.927-5.71,12.456,12.456,0,0,1,0-3.368c.61-3.4,2.689-5.454,5.9-5.828A9.719,9.719,0,0,1,139.339-57.264Z" transform="translate(-59.155 65.604)" fill="#75b709"/>
    <path id="path14" d="M206.355-65.5a16.548,16.548,0,0,0-9.723,4.4,15.613,15.613,0,0,0-4.269,14.5,15.007,15.007,0,0,0,5.066,8.621,17.18,17.18,0,0,0,4.456,2.606,19.134,19.134,0,0,0,7.9,1.157,14.981,14.981,0,0,0,8.662-2.973,19.666,19.666,0,0,0,2.98-2.938,4.357,4.357,0,0,0,.45-3.77,4.3,4.3,0,0,0-4.3-2.834,4.166,4.166,0,0,0-3.042,1.525c-1.8,1.712-3,2.384-4.74,2.647a8.2,8.2,0,0,1-4.234-.492,6.577,6.577,0,0,1-3.617-5.093,14.213,14.213,0,0,1-.035-3.43A6.332,6.332,0,0,1,206.521-57a7.212,7.212,0,0,1,7.664,2.633,4.454,4.454,0,0,0,1.691,1.448,4.21,4.21,0,0,0,3.888.007,4.252,4.252,0,0,0,2.412-3.853,4.327,4.327,0,0,0-1.109-2.987,14.5,14.5,0,0,0-7.838-5.3,16.031,16.031,0,0,0-4.345-.513A18.973,18.973,0,0,0,206.355-65.5Z" transform="translate(-91.696 65.59)" fill="#75b709"/>
    <path id="path16" d="M266.6-65.565a14.435,14.435,0,0,0-5.17,1.275,8.192,8.192,0,0,0-4.747,5.883,16.22,16.22,0,0,0-.139,3.832c.457,3.451,2.55,5.918,6.244,7.38a31.118,31.118,0,0,0,3.985,1.157c4.165,1,4.7,1.2,5.024,1.836a1.778,1.778,0,0,1,.007,1.372c-.388.755-1.227,1.039-3.278,1.1A10.279,10.279,0,0,1,261.347-44a4.123,4.123,0,0,0-2.2-.977,3.816,3.816,0,0,0-4.005,2.564,4.561,4.561,0,0,0,.007,2.384,5.109,5.109,0,0,0,.825,1.407,16.537,16.537,0,0,0,3.243,2.356,21.051,21.051,0,0,0,11.989,1.933c4.9-.527,8.011-2.654,9.133-6.23a12.05,12.05,0,0,0,.534-3.617,7.84,7.84,0,0,0-2.411-5.994c-1.739-1.677-4-2.7-7.865-3.562-3.492-.776-4.234-.991-4.885-1.407a1.39,1.39,0,0,1-.741-1.365,1.083,1.083,0,0,1,.194-.776c.34-.52.935-.783,2.058-.922a9.148,9.148,0,0,1,6.791,2.2,3.754,3.754,0,0,0,2.564.991,3.6,3.6,0,0,0,3.021-1.566,3.608,3.608,0,0,0,.312-3.735,5.821,5.821,0,0,0-1.67-1.94A14.357,14.357,0,0,0,270-65.545,31.06,31.06,0,0,0,266.6-65.565Z" transform="translate(-120.617 65.604)" fill="#75b709"/>
    <path id="path18" d="M75.858-64.755a4.877,4.877,0,0,0-3.763,2.8c-.471.991-.45.291-.43,12.813l.021,11.309.208.589a5.05,5.05,0,0,0,3.292,3.132,5.713,5.713,0,0,0,2.564.035A5.025,5.025,0,0,0,80.9-36.655c.478-.991.471-.873.52-5.544a30.629,30.629,0,0,1,.194-5.052,12.471,12.471,0,0,1,.547-2.141,7.341,7.341,0,0,1,5.378-5.01,5.06,5.06,0,0,1,2.273.09,6.974,6.974,0,0,0,3.146.035,5.037,5.037,0,0,0,2.01-1.289,4.523,4.523,0,0,0,1.379-3.368,4.357,4.357,0,0,0-.513-2.183,4.715,4.715,0,0,0-2.391-2.294,5.549,5.549,0,0,0-3.222-.679,9.689,9.689,0,0,0-3.479.485,13.293,13.293,0,0,0-4.851,2.855,3.7,3.7,0,0,1-.5.43c-.021,0-.042-.1-.042-.215a5.179,5.179,0,0,0-1.123-2.543,5.056,5.056,0,0,0-2.495-1.566A5.777,5.777,0,0,0,75.858-64.755Z" transform="translate(-36.407 65.23)" fill="#75b709"/>
  </g>
  <g id="text3792" transform="translate(162.071 0)">
    <path id="path3797" d="M306.8,12.245h.138V11.5q0-.3.016-.471a.691.691,0,0,1,.09-.293.563.563,0,0,1,.211-.207.6.6,0,0,1,.308-.08.622.622,0,0,1,.432.177.524.524,0,0,1,.163.289,2.6,2.6,0,0,1,.034.484v.846h.459a.592.592,0,0,1,.406.125.41.41,0,0,1,.14.32.358.358,0,0,1-.2.35,1.307,1.307,0,0,1-.572.1H308.2v2.282a3.649,3.649,0,0,0,.021.448.453.453,0,0,0,.11.255.379.379,0,0,0,.292.1,1.575,1.575,0,0,0,.3-.039,1.563,1.563,0,0,1,.294-.039.379.379,0,0,1,.273.12.4.4,0,0,1,.122.3.5.5,0,0,1-.331.459,2.254,2.254,0,0,1-.95.159,1.656,1.656,0,0,1-.891-.2.908.908,0,0,1-.4-.541,3.637,3.637,0,0,1-.094-.923V13.141h-.165a.6.6,0,0,1-.413-.127.414.414,0,0,1-.142-.323.4.4,0,0,1,.149-.32.659.659,0,0,1,.434-.125Z" transform="translate(-306.221 -10.449)" fill="#75b709"/>
    <path id="path3799" d="M317.426,16.183v1.65a.843.843,0,0,1-.179.586.611.611,0,0,1-.473.2.593.593,0,0,1-.461-.2.85.85,0,0,1-.177-.586V15.855a6.3,6.3,0,0,0-.032-.727.784.784,0,0,0-.174-.425.562.562,0,0,0-.45-.166.8.8,0,0,0-.81.418,2.925,2.925,0,0,0-.2,1.2v1.677a.852.852,0,0,1-.177.584.6.6,0,0,1-.466.2.6.6,0,0,1-.466-.2.837.837,0,0,1-.181-.584v-3.55a.773.773,0,0,1,.163-.532.549.549,0,0,1,.429-.182.586.586,0,0,1,.429.17.632.632,0,0,1,.172.471v.118a2.176,2.176,0,0,1,.7-.568,1.857,1.857,0,0,1,.826-.182,1.666,1.666,0,0,1,.813.186,1.466,1.466,0,0,1,.56.564,2.173,2.173,0,0,1,.68-.566,1.75,1.75,0,0,1,.8-.184,1.846,1.846,0,0,1,.886.2,1.279,1.279,0,0,1,.556.573,2.6,2.6,0,0,1,.161,1.059v2.423a.842.842,0,0,1-.179.586.611.611,0,0,1-.473.2.6.6,0,0,1-.466-.2.837.837,0,0,1-.181-.584V15.746a4.751,4.751,0,0,0-.034-.641.733.733,0,0,0-.186-.4.6.6,0,0,0-.459-.164.847.847,0,0,0-.471.145.991.991,0,0,0-.347.391,3.077,3.077,0,0,0-.138,1.109Z" transform="translate(-309.419 -11.882)" fill="#75b709"/>
  </g>
</svg>
